<?xml version="1.0" encoding="UTF-8"?>
<svg id="Layer_2" data-name="Layer 2" xmlns="http://www.w3.org/2000/svg" viewBox="0 0 2057.22 2310.91">
  <defs>
    <style>
      .cls-1 {
        fill: #253a24;
      }

      .cls-2 {
        fill: azure;
      }
    </style>
  </defs>
  <path class="cls-2" d="M1134.16,30.61c50.28,32.74,773.14,440.7,820.6,473.17,79.46,39.58,97.96,122.25,99.38,175.13s6.07,862.85,.19,952.09-25.19,125.73-99.09,175.04-731.74,424.13-820.6,473.17-152.38,35.51-218.4-2.17S181.73,1856.48,99.97,1806.14,0,1684.18,.22,1631.1,3.56,750.28,.22,678.82s31.42-140.14,99.38-175.13S867.9,55.55,915.95,32.79c76.49-51.21,167.93-34.92,218.21-2.17Z"/>
  <path class="cls-1" d="M1710.19,760.06l-331.28,190.82s-4.1,9.5-21.07-28.34c-48.96-66.29-276.09-204.78-455.86-99.98s-272.53,324.35-165.71,522.13,330.62,194.88,330.62,194.88c0,0,188.65-.65,315.22-170.13,54.76,34.36,323.91,195.82,323.91,195.82,0,0-9.77,78.95-263.9,250.3s-823.48,141.09-1038.36-302.45-22.03-740.23,208.66-947.44,753.34-244.34,1058.47,137.7c25.54,31.98,39.3,56.68,39.3,56.68Z"/>
</svg>