<?xml version="1.0" encoding="UTF-8"?>
<svg id="Layer_2" data-name="Layer 2" xmlns="http://www.w3.org/2000/svg" viewBox="0 0 534.22 748.44">
  <defs>
    <style>
      .cls-1 {
        fill: #253a24;
      }

      .cls-2 {
        fill: azure;
      }
    </style>
  </defs>
  <polygon class="cls-2" points="0 146.67 534.22 146.67 484.44 688.89 266.67 748.44 48.89 689.78 0 146.67"/>
  <polygon class="cls-1" points="97.78 256.89 105.78 323.56 272.89 322.67 112 391.11 117.33 454.22 347.56 456.89 343.11 540.44 265.78 563.56 192.89 544.89 188.44 491.56 120.89 491.56 129.78 594.67 265.78 634.67 402.67 595.56 420.44 392 266.67 392 426.67 323.56 432.89 256.89 97.78 256.89"/>
  <polygon class="cls-2" points="190.22 0 108.44 0 108.44 98.67 189.33 98.67 190.22 67.56 144 67.56 143.11 33.78 189.33 34.67 190.22 0"/>
  <path class="cls-2" d="M225.78,0h82.67V24h-57.78v14.22h56v60.44h-80v-32h57.78v-8.89h-57.78S227.56,0,225.78,0Z"/>
  <path class="cls-2" d="M342.22,0h82.67V24h-57.78v14.22h56v60.44h-80v-32h57.78v-8.89h-57.78s.89-57.78-.89-57.78Z"/>
</svg>