<?xml version="1.0" encoding="UTF-8"?>
<svg id="Layer_2" data-name="Layer 2" xmlns="http://www.w3.org/2000/svg" viewBox="0 0 1771 2503.78">
  <defs>
    <style>
      .cls-1 {
        fill: azure;
      }
    </style>
  </defs>
  <polygon class="cls-1" points="166.1 0 166.11 337.1 278.78 337.1 278.78 224.22 381.85 224.22 381.85 337.1 494.52 337.1 494.52 0 381.84 0 381.84 111.32 278.77 111.32 278.77 0 166.1 0"/>
  <polygon class="cls-1" points="543.5 0 543.5 111.79 642.68 111.79 642.69 337.1 755.37 337.1 755.37 111.79 854.6 111.79 854.6 0 543.5 0"/>
  <polygon class="cls-1" points="903.97 0 903.98 337.1 1014.22 337.1 1014.22 170.01 1091.79 289.87 1171.24 170.01 1171.24 337.1 1283.45 337.1 1283.45 0 1165.92 0 1093.72 118.45 1021.45 0 903.97 0"/>
  <polygon class="cls-1" points="1339.53 0 1452.23 0 1452.23 225.67 1610.68 225.67 1610.68 337.1 1339.53 337.1 1339.53 0"/>
  <polygon class="cls-1" points="0 495.26 161.17 2303 884.41 2503.78 1609.66 2302.72 1771 495.26 1483.33 495.26 1440.12 864.79 1420.27 1086.5 884.74 1086.5 571.85 1086.5 592.12 1313.54 884.74 1313.54 1400.1 1313.54 1339.25 1994.22 884.74 2120.19 430.32 1994.22 399.26 1646.11 621.82 1646.11 637.6 1822.93 884.74 1889.53 1132.01 1822.79 1157.74 1535.25 884.74 1535.25 389.35 1535.25 329.55 864.79 884.74 864.79 1480.67 864.79 1528.81 496.41 0 495.26"/>
</svg>